<svg width="207" height="53" viewBox="0 0 207 53" fill="none" xmlns="http://www.w3.org/2000/svg">
<path d="M63.288 24.448C63.288 34.816 59.192 40 51 40H41.112V10.192H51.192C55.576 10.192 58.68 11.424 60.504 13.888C62.36 16.32 63.288 19.84 63.288 24.448ZM50.856 33.088C52.552 33.088 53.64 32.496 54.12 31.312C54.632 30.096 54.888 28.08 54.888 25.264C54.888 22.416 54.616 20.4 54.072 19.216C53.56 18.032 52.44 17.44 50.712 17.44H49.272V33.088H50.856ZM75.3056 23.296C74.4736 23.296 73.9296 23.584 73.6736 24.16C73.4176 24.704 73.2896 25.552 73.2896 26.704H77.4656V25.552C77.4656 24.048 76.7456 23.296 75.3056 23.296ZM75.4976 16.432C78.7936 16.432 81.1456 17.232 82.5536 18.832C83.9936 20.4 84.7136 22.656 84.7136 25.6C84.7136 25.984 84.6016 27.712 84.3776 30.784H73.4336C73.4336 33.184 74.5376 34.384 76.7456 34.384C77.8016 34.384 79.8656 34.016 82.9376 33.28L83.6096 39.232C80.9216 40.064 78.2336 40.48 75.5456 40.48C72.2496 40.48 69.7216 39.408 67.9616 37.264C66.2016 35.088 65.3216 32.144 65.3216 28.432C65.3216 20.432 68.7136 16.432 75.4976 16.432ZM106.668 17.008L101.772 40H90.444L85.5 17.008H93.948L96.012 31.744H96.636L98.844 17.008H106.668ZM123.968 40H108.8V10.192H117.008V33.328H124.448L123.968 40ZM133.63 40H125.71V17.248H133.63V40ZM126.334 15.424C125.662 14.848 125.326 13.92 125.326 12.64C125.326 11.36 125.662 10.416 126.334 9.808C127.006 9.2 128.11 8.896 129.646 8.896C131.182 8.896 132.286 9.2 132.958 9.808C133.63 10.416 133.966 11.36 133.966 12.64C133.966 13.888 133.63 14.816 132.958 15.424C132.286 16 131.182 16.288 129.646 16.288C128.11 16.288 127.006 16 126.334 15.424ZM135.426 23.824C135.426 21.488 136.13 19.68 137.538 18.4C138.978 17.088 140.946 16.432 143.442 16.432C145.938 16.432 148.466 16.752 151.026 17.392L150.21 24.064C146.946 23.328 144.754 22.96 143.634 22.96C142.962 22.96 142.626 23.232 142.626 23.776C142.626 24.128 142.994 24.448 143.73 24.736C146.29 25.664 148.21 26.72 149.49 27.904C150.802 29.088 151.458 30.864 151.458 33.232C151.458 35.6 150.85 37.408 149.634 38.656C148.418 39.872 146.546 40.48 144.018 40.48C141.522 40.48 139.026 40.16 136.53 39.52L137.058 33.04C140.258 33.904 142.322 34.336 143.25 34.336C144.21 34.336 144.69 34.112 144.69 33.664C144.69 33.216 144.338 32.864 143.634 32.608C140.786 31.52 138.706 30.368 137.394 29.152C136.082 27.904 135.426 26.128 135.426 23.824ZM166.041 40.048C163.673 40.336 161.609 40.48 159.849 40.48C158.121 40.48 156.761 40.032 155.769 39.136C154.809 38.208 154.329 36.624 154.329 34.384V23.248H152.025V17.296H154.713L155.145 12.88H162.393V17.296H166.665L166.329 23.248H162.345V32.8C162.345 33.472 162.665 33.808 163.305 33.808C163.369 33.808 164.361 33.76 166.281 33.664L166.041 40.048Z" fill="white"/>
<path d="M0 48H207" stroke="white"/>
</svg>
